<svg width="83" height="9" viewBox="0 0 83 9" fill="none" xmlns="http://www.w3.org/2000/svg"><path d="M.83 1h3.18c.76 0 1.43.147 2.01.44.587.287 1.04.693 1.36 1.22.327.527.49 1.14.49 1.84 0 .7-.163 1.313-.49 1.84a3.25 3.25 0 0 1-1.36 1.23c-.58.287-1.25.43-2.01.43H.83V1zm3.1 5.67c.7 0 1.257-.193 1.67-.58.42-.393.63-.923.63-1.59s-.21-1.193-.63-1.58c-.413-.393-.97-.59-1.67-.59H2.45v4.34h1.48zm11.582.03V8h-5.42V1h5.29v1.3h-3.68v1.52h3.25v1.26h-3.25V6.7h3.81zM20.1 8.12c-.554 0-1.09-.073-1.61-.22-.514-.153-.927-.35-1.24-.59l.55-1.22c.3.22.656.397 1.07.53.413.133.826.2 1.24.2.46 0 .8-.067 1.02-.2.22-.14.33-.323.33-.55a.502.502 0 0 0-.2-.41 1.37 1.37 0 0 0-.5-.27c-.2-.067-.474-.14-.82-.22-.534-.127-.97-.253-1.31-.38a2.166 2.166 0 0 1-.88-.61c-.24-.28-.36-.653-.36-1.12 0-.407.11-.773.33-1.1.22-.333.55-.597.99-.79.446-.193.99-.29 1.63-.29.446 0 .883.053 1.31.16.426.107.8.26 1.12.46l-.5 1.23c-.647-.367-1.294-.55-1.94-.55-.454 0-.79.073-1.01.22-.214.147-.32.34-.32.58 0 .24.123.42.37.54.253.113.636.227 1.15.34.533.127.97.253 1.31.38.34.127.63.327.87.6.246.273.37.643.37 1.11 0 .4-.114.767-.34 1.1-.22.327-.554.587-1 .78-.447.193-.99.29-1.63.29zM25.178 1h1.62v7h-1.62V1zm9.01 3.39h1.48v2.84c-.38.287-.82.507-1.32.66-.5.153-1.002.23-1.51.23-.726 0-1.38-.153-1.96-.46a3.545 3.545 0 0 1-1.37-1.29 3.608 3.608 0 0 1-.49-1.87c0-.693.164-1.313.49-1.86a3.434 3.434 0 0 1 1.38-1.29c.588-.313 1.248-.47 1.98-.47.614 0 1.17.103 1.67.31.5.207.92.507 1.26.9l-1.04.96c-.5-.527-1.102-.79-1.81-.79a2.47 2.47 0 0 0-1.19.28c-.346.187-.616.45-.81.79-.192.34-.29.73-.29 1.17 0 .433.098.82.29 1.16.194.34.46.607.8.8.348.187.74.28 1.18.28.468 0 .888-.1 1.26-.3V4.39zM44.595 1v7h-1.33l-3.49-4.25V8h-1.6V1h1.34l3.48 4.25V1h1.6zm8.076 5.7V8h-5.42V1h5.29v1.3h-3.68v1.52h3.25v1.26h-3.25V6.7h3.81zM54.959 1h3.18c.76 0 1.43.147 2.01.44.587.287 1.04.693 1.36 1.22.327.527.49 1.14.49 1.84 0 .7-.163 1.313-.49 1.84a3.25 3.25 0 0 1-1.36 1.23c-.58.287-1.25.43-2.01.43h-3.18V1zm3.1 5.67c.7 0 1.257-.193 1.67-.58.42-.393.63-.923.63-1.59s-.21-1.193-.63-1.58c-.413-.393-.97-.59-1.67-.59h-1.48v4.34h1.48zm15.134-2.31c.4.127.713.34.94.64.226.293.34.657.34 1.09 0 .613-.24 1.087-.72 1.42-.474.327-1.167.49-2.08.49h-3.62V1h3.42c.853 0 1.506.163 1.96.49.46.327.69.77.69 1.33 0 .34-.084.643-.25.91a1.68 1.68 0 0 1-.68.63zm-3.53-2.14v1.65h1.61c.4 0 .703-.07.91-.21.206-.14.31-.347.31-.62s-.104-.477-.31-.61c-.207-.14-.51-.21-.91-.21h-1.61zm1.89 4.56c.426 0 .746-.07.96-.21.22-.14.33-.357.33-.65 0-.58-.43-.87-1.29-.87h-1.89v1.73h1.89zm8.506-1.26V8h-1.62V5.5L75.73 1h1.72l1.87 3.11L81.19 1h1.59l-2.72 4.52z" fill="#CCC"/></svg>